<?xml version="1.0" encoding="UTF-8"?>
<svg width="110px" height="23px" viewBox="0 0 110 23" version="1.1" xmlns="http://www.w3.org/2000/svg" xmlns:xlink="http://www.w3.org/1999/xlink">
    <!-- Generator: Sketch 45.2 (43514) - http://www.bohemiancoding.com/sketch -->
    <title>Group 2</title>
    <desc>Created with Sketch.</desc>
    <defs></defs>
    <g id="Page-1" stroke="none" stroke-width="1" fill="none" fill-rule="evenodd">
        <g id="Artboard" transform="translate(-17.000000, -20.000000)">
            <g id="Group-2" transform="translate(9.000000, 12.000000)">
                <rect id="Rectangle-2" x="0" y="0" width="40" height="40"></rect>
                <path d="M19.5,10.875 L29.0833333,18.5416667 L29.0833333,31 L22.375,31 L22.375,23.3333333 L16.625,23.3333333 L16.625,31 L9.91666667,31 L9.91666667,18.5416667 L19.5,10.875 Z M28.125,30.0416667 L28.125,19.0208333 L19.5,12.0729167 L10.875,19.0208333 L10.875,30.0416667 L15.6666667,30.0416667 L15.6666667,22.375 L23.3333333,22.375 L23.3333333,30.0416667 L28.125,30.0416667 Z M19.5,8 L31,17.1640625 L30.28125,17.8828125 L19.5,9.19791667 L8.71875,17.8828125 L8,17.1640625 L9.91666667,15.6666667 L9.91666667,9.91666667 L13.75,9.91666667 L13.75,12.6119792 L19.5,8 Z M12.7916667,13.390625 L12.7916667,10.875 L10.875,10.875 L10.875,14.8880208 L12.7916667,13.390625 Z" id="ion-ios-home-outline---Ionicons" fill="#FFFFFF"></path>
                <text id="CRASH" font-family="Poppins-Light, Poppins" font-size="24" font-weight="300" line-spacing="24" fill="#FFFFFF">
                    <tspan x="40" y="37">CRASH</tspan>
                </text>
            </g>
        </g>
    </g>
</svg>